<?xml version="1.0" standalone="no"?>
<!DOCTYPE svg PUBLIC "-//W3C//DTD SVG 20010904//EN"
 "http://www.w3.org/TR/2001/REC-SVG-20010904/DTD/svg10.dtd">
<svg version="1.0" xmlns="http://www.w3.org/2000/svg"
 width="700.000000pt" height="700.000000pt" viewBox="0 0 700.000000 700.000000"
 preserveAspectRatio="xMidYMid meet">
<metadata>
Created by potrace 1.11, written by Peter Selinger 2001-2013
</metadata>
<g transform="translate(0.000000,700.000000) scale(0.100000,-0.100000)"
fill="#000000" stroke="none">
<path d="M0 3500 l0 -3500 3500 0 3500 0 0 3500 0 3500 -3500 0 -3500 0 0
-3500z m2973 855 c78 -16 156 -50 220 -94 l45 -30 6 38 c7 46 25 64 63 59 45
-5 53 -35 52 -208 -1 -181 -5 -201 -42 -215 -43 -14 -60 3 -75 75 -14 74 -35
109 -94 167 -91 89 -230 127 -380 105 -190 -27 -315 -141 -326 -295 -8 -112
56 -211 170 -262 34 -15 118 -38 187 -52 211 -40 343 -72 398 -98 248 -114
293 -454 87 -658 -103 -103 -215 -146 -399 -154 -192 -8 -344 37 -458 138
l-47 41 0 -51 c0 -53 -23 -91 -55 -91 -8 0 -24 9 -35 20 -19 19 -20 33 -20
214 0 209 4 226 53 226 37 0 49 -16 58 -70 29 -183 191 -303 428 -317 164 -9
287 28 384 117 73 66 101 126 105 223 4 68 1 84 -22 132 -55 111 -128 149
-381 200 -282 56 -387 96 -471 180 -73 73 -97 141 -92 261 3 78 8 101 36 157
39 79 126 163 208 202 112 53 264 68 397 40z m1732 -39 c229 -61 370 -280 310
-482 -21 -73 -71 -142 -136 -188 -32 -23 -58 -44 -58 -48 -1 -3 15 -12 35 -18
19 -7 68 -34 107 -60 182 -122 235 -323 134 -513 -58 -109 -189 -202 -321
-226 -37 -7 -226 -11 -500 -11 -481 0 -488 1 -494 55 -6 45 18 55 125 55 l93
0 0 670 0 670 -88 0 c-102 0 -132 14 -132 60 0 17 7 33 18 39 28 17 844 14
907 -3z m-3624 -312 c233 -130 511 -285 617 -344 185 -103 192 -108 170 -122
-99 -63 -1219 -678 -1235 -678 -30 0 -57 34 -49 65 8 32 -9 21 566 340 267
147 490 273 497 279 9 8 -123 86 -519 306 -366 203 -534 301 -541 317 -13 30
14 73 46 73 13 0 214 -106 448 -236z"/>
<path d="M4120 3929 l0 -291 258 4 c235 3 262 6 317 26 118 44 192 120 215
225 21 93 -28 198 -124 264 -83 57 -120 63 -408 63 l-258 0 0 -291z"/>
<path d="M4120 3205 l0 -327 323 4 c371 4 393 9 486 96 103 97 129 223 71 340
-37 72 -82 115 -165 153 -93 44 -138 50 -437 56 l-278 6 0 -328z"/>
</g>
</svg>
